<?xml version="1.0" encoding="UTF-8"?>
<svg width="12px" height="12px" viewBox="0 0 12 12" version="1.1" xmlns="http://www.w3.org/2000/svg" xmlns:xlink="http://www.w3.org/1999/xlink">
    <title>Icon/delete</title>
    <g id="Page-1---New-version-Copy" stroke="none" stroke-width="1" fill="none" fill-rule="evenodd">
        <g id="Badge/Icon-Text/Large/no-container/Left-Copy-4" transform="translate(-2.000000, -4.000000)" fill="#E83C20">
            <g id="Icon/Mail" transform="translate(0.000000, 2.000000)">
                <path d="M12,6.66666667 L12,12 C12,12.7333333 11.4,13.3333333 10.6666667,13.3333333 L10.6666667,13.3333333 L5.33333333,13.3333333 C4.6,13.3333333 4,12.7333333 4,12 L4,12 L4,6.66666667 L12,6.66666667 Z M10,2.66666667 C10.4,2.66666667 10.6666667,2.93333333 10.6666667,3.33333333 L10.6666667,3.33333333 L10.6666667,4.66666667 L13.3333333,4.66666667 L13.3333333,6 L2.66666667,6 L2.66666667,4.66666667 L5.33333333,4.66666667 L5.33333333,3.33333333 C5.33333333,2.93333333 5.6,2.66666667 6,2.66666667 L6,2.66666667 Z M9.33333333,4 L6.66666667,4 L6.66666667,4.66666667 L9.33333333,4.66666667 L9.33333333,4 Z" id="Fill"></path>
            </g>
        </g>
    </g>
</svg>