<?xml version="1.0" encoding="UTF-8"?>
<svg width="12px" height="12px" viewBox="0 0 12 12" version="1.1" xmlns="http://www.w3.org/2000/svg" xmlns:xlink="http://www.w3.org/1999/xlink">
    <title>Icon/Error</title>
    <g id="Page-1---New-version-Copy" stroke="none" stroke-width="1" fill="none" fill-rule="evenodd">
        <g id="KrispyKreme---Import-2" transform="translate(-832.000000, -392.000000)" fill="#E83C20">
            <g id="Add-Media-Modal" transform="translate(401.000000, 145.000000)">
                <g id="File-uploaded" transform="translate(1.000000, 242.000000)">
                    <g id="Indicator" transform="translate(351.000000, 2.000000)">
                        <g id="Icon/Check" transform="translate(76.000000, 0.000000)">
                            <path d="M14.412,13.14675 L9.6615,4.2405 C9.3795,3.711 8.6205,3.711 8.33775,4.2405 L3.588,13.14675 C3.32175,13.64625 3.684,14.25 4.25025,14.25 L13.7505,14.25 C14.316,14.25 14.67825,13.64625 14.412,13.14675 Z M9,12.75 C8.586,12.75 8.25,12.414 8.25,12 C8.25,11.586 8.586,11.25 9,11.25 C9.414,11.25 9.75,11.586 9.75,12 C9.75,12.414 9.414,12.75 9,12.75 Z M9.75,10.5 L8.25,10.5 L8.25,7.5 L9.75,7.5 L9.75,10.5 Z" id="Fill"></path>
                        </g>
                    </g>
                </g>
            </g>
        </g>
    </g>
</svg>