<?xml version="1.0" encoding="UTF-8"?>
<svg width="16px" height="14px" viewBox="0 0 16 14" version="1.1" xmlns="http://www.w3.org/2000/svg" xmlns:xlink="http://www.w3.org/1999/xlink">
    <title>Export On</title>
    <g id="Page-1---New-version-Copy" stroke="none" stroke-width="1" fill="none" fill-rule="evenodd">
        <g id="KrispyKreme---single-select-edit" transform="translate(-1155.000000, -221.000000)" fill="#002FA7">
            <g id="Group" transform="translate(167.000000, 184.000000)">
                <g id="Section-actions" transform="translate(0.000000, 1.000000)">
                    <g id="Table-Actions" transform="translate(888.000000, 31.000000)">
                        <g id="Export-On" transform="translate(96.000000, 0.000000)">
                            <path d="M9,5 L9,7 L6,7 L6,17 L18,17 L18,7 L15,7 L15,5 L19,5 C19.552,5 20,5.448 20,6 L20,18 C20,18.552 19.552,19 19,19 L5,19 C4.448,19 4,18.552 4,18 L4,6 C4,5.448 4.448,5 5,5 L9,5 Z M13,5 L13,11 L16,11 L12,15 L8,11 L11,11 L11,5 L13,5 Z" id="Fill"></path>
                        </g>
                    </g>
                </g>
            </g>
        </g>
    </g>
</svg>