<?xml version="1.0" encoding="UTF-8"?>
<svg width="16px" height="16px" viewBox="0 0 16 16" version="1.1" xmlns="http://www.w3.org/2000/svg" xmlns:xlink="http://www.w3.org/1999/xlink">
    <title>Filter</title>
    <g id="Page-1---New-version-Copy" stroke="none" stroke-width="1" fill="none" fill-rule="evenodd">
        <g id="KrispyKreme---single-select-edit" transform="translate(-1203.000000, -220.000000)" fill="#002FA7">
            <g id="Group" transform="translate(167.000000, 184.000000)">
                <g id="Section-actions" transform="translate(0.000000, 1.000000)">
                    <g id="Table-Actions" transform="translate(888.000000, 31.000000)">
                        <g id="Filter" transform="translate(144.000000, 0.000000)">
                            <path d="M19,4 L5,4 C4.4,4 4,4.4 4,5 L4,7 C4,7.3 4.1,7.6 4.4,7.8 L10,12.5 L10,19 C10,19.4 10.2,19.8 10.6,19.9 C10.7,20 10.9,20 11,20 C11.3,20 11.5,19.9 11.7,19.7 L13.7,17.7 C13.9,17.5 14,17.3 14,17 L14,12.5 L19.6,7.8 C19.9,7.6 20,7.3 20,7 L20,5 C20,4.4 19.6,4 19,4 Z" id="Fill"></path>
                        </g>
                    </g>
                </g>
            </g>
        </g>
    </g>
</svg>