<?xml version="1.0" encoding="UTF-8"?>
<svg width="144px" height="144px" viewBox="0 0 144 144" version="1.1" xmlns="http://www.w3.org/2000/svg" xmlns:xlink="http://www.w3.org/1999/xlink">
    <title>IVRO-Logo-Mark-1x</title>
    <g id="IVRO-Logo-Mark" stroke="none" stroke-width="1" fill="none" fill-rule="evenodd">
        <g id="Group-Copy-10" transform="translate(24.000000, 24.000000)">
            <rect id="Rectangle" fill="#002755" x="0" y="0" width="96" height="14" rx="7"></rect>
            <path d="M89.4615385,41 C93.0726311,41 96,44.1340068 96,48 C96,51.8659932 93.0726311,55 89.4615385,55 L69,55 C65.1340068,55 62,51.8659932 62,48 C62,44.1340068 65.1340068,41 69,41 L89.4615385,41 L89.4615385,41 Z" id="Path" fill="#0684BC"></path>
            <path d="M27,55 L6.53846154,55 L6.53846154,55 C2.92736894,55 0,51.8659932 0,48 C0,44.1340068 2.92736894,41 6.53846154,41 L27,41 C30.8659932,41 34,44.1340068 34,48 C34,51.8659932 30.8659932,55 27,55 Z" id="Path" fill="#002755"></path>
            <path d="M89.4375,20 C93.0618687,20 96,23.1340068 96,27 C96,30.8659932 93.0618687,34 89.4375,34 L82,34 C78.1340068,34 75,30.8659932 75,27 C75,23.1340068 78.1340068,20 82,20 L89.4375,20 L89.4375,20 Z" id="Path" fill="#0684BC"></path>
            <path d="M14,34 L6.5625,34 L6.5625,34 C2.93813133,34 0,30.8659932 0,27 C0,23.1340068 2.93813133,20 6.5625,20 L14,20 C17.8659932,20 21,23.1340068 21,27 C21,30.8659932 17.8659932,34 14,34 Z" id="Path" fill="#002755"></path>
            <rect id="Rectangle-Copy-2" fill="#0684BC" x="0" y="82" width="96" height="14" rx="7"></rect>
            <path d="M89.4375,62 C93.0618687,62 96,65.1340068 96,69 C96,72.8659932 93.0618687,76 89.4375,76 L82,76 C78.1340068,76 75,72.8659932 75,69 C75,65.1340068 78.1340068,62 82,62 L89.4375,62 L89.4375,62 Z" id="Path" fill="#0684BC"></path>
            <path d="M14,76 L6.5625,76 L6.5625,76 C2.93813133,76 0,72.8659932 0,69 C0,65.1340068 2.93813133,62 6.5625,62 L14,62 C17.8659932,62 21,65.1340068 21,69 C21,72.8659932 17.8659932,76 14,76 Z" id="Path" fill="#002755"></path>
        </g>
    </g>
</svg>