<?xml version="1.0" encoding="UTF-8"?>
<svg width="434px" height="144px" viewBox="0 0 434 144" version="1.1" xmlns="http://www.w3.org/2000/svg" xmlns:xlink="http://www.w3.org/1999/xlink">
    <title>IVRO-Full-logo-1x</title>
    <g id="IVRO-Full-logo" stroke="none" stroke-width="1" fill="none" fill-rule="evenodd">
        <g id="Group-Copy-10" transform="translate(24.000000, 24.000000)">
            <rect id="Rectangle" fill="#002755" x="0" y="0" width="96" height="14" rx="7"></rect>
            <path d="M89.4615385,41 C93.0726311,41 96,44.1340068 96,48 C96,51.8659932 93.0726311,55 89.4615385,55 L69,55 C65.1340068,55 62,51.8659932 62,48 C62,44.1340068 65.1340068,41 69,41 L89.4615385,41 L89.4615385,41 Z" id="Path" fill="#0684BC"></path>
            <path d="M27,55 L6.53846154,55 L6.53846154,55 C2.92736894,55 0,51.8659932 0,48 C0,44.1340068 2.92736894,41 6.53846154,41 L27,41 C30.8659932,41 34,44.1340068 34,48 C34,51.8659932 30.8659932,55 27,55 Z" id="Path" fill="#002755"></path>
            <path d="M89.4375,20 C93.0618687,20 96,23.1340068 96,27 C96,30.8659932 93.0618687,34 89.4375,34 L82,34 C78.1340068,34 75,30.8659932 75,27 C75,23.1340068 78.1340068,20 82,20 L89.4375,20 L89.4375,20 Z" id="Path" fill="#0684BC"></path>
            <path d="M14,34 L6.5625,34 L6.5625,34 C2.93813133,34 0,30.8659932 0,27 C0,23.1340068 2.93813133,20 6.5625,20 L14,20 C17.8659932,20 21,23.1340068 21,27 C21,30.8659932 17.8659932,34 14,34 Z" id="Path" fill="#002755"></path>
            <rect id="Rectangle-Copy-2" fill="#0684BC" x="0" y="82" width="96" height="14" rx="7"></rect>
            <path d="M89.4375,62 C93.0618687,62 96,65.1340068 96,69 C96,72.8659932 93.0618687,76 89.4375,76 L82,76 C78.1340068,76 75,72.8659932 75,69 C75,65.1340068 78.1340068,62 82,62 L89.4375,62 L89.4375,62 Z" id="Path" fill="#0684BC"></path>
            <path d="M14,76 L6.5625,76 L6.5625,76 C2.93813133,76 0,72.8659932 0,69 C0,65.1340068 2.93813133,62 6.5625,62 L14,62 C17.8659932,62 21,65.1340068 21,69 C21,72.8659932 17.8659932,76 14,76 Z" id="Path" fill="#002755"></path>
        </g>
        <g id="ivr.o-copy-4" transform="translate(172.000000, 38.000000)" fill="#0684BC" fill-rule="nonzero">
            <path d="M10,67 L10,2 L0,2 C0,11.5333333 0,17.6866667 0,20.46 L0,67 L10,67 Z" id="Path"></path>
            <path d="M61.2978261,67 L84,2 L73.3543478,2 L57.0652174,50.88 C56.0391304,54.13 55.2695652,56.6 54.8847826,58.81 L54.1152174,58.81 C53.7304348,56.6 52.9608696,54.13 51.9347826,50.88 L35.6456522,2 L25,2 L47.7021739,67 L61.2978261,67 Z" id="Path"></path>
            <path d="M108.421456,67 L108.421456,28.2800789 C108.421456,17.1794872 115.846743,9.7790927 127.310345,9.7790927 C129.003831,9.7790927 130.436782,9.9112426 132,10.1755424 L132,0.132149901 C130.436782,0 129.655172,0 128.35249,0 C118.712644,0 112.199234,3.43589744 108.421456,9.5147929 L107.900383,9.5147929 L106.727969,0.92504931 L98,0.92504931 L98,67 L108.421456,67 Z" id="Path"></path>
            <polygon id="Path" points="159 65 159 51 145 51 145 65"></polygon>
            <path d="M207.5,68 C225.096154,68 238,55.4122137 238,34 C238,12.5877863 225.096154,0 207.5,0 C189.903846,0 177,12.5877863 177,34 C177,55.4122137 189.903846,68 207.5,68 Z M207.5,58.9160305 C195.508547,58.9160305 187.42735,50.870229 187.42735,37.2442748 L187.42735,30.7557252 C187.42735,17.129771 195.508547,9.08396947 207.5,9.08396947 C219.491453,9.08396947 227.57265,17.129771 227.57265,30.7557252 L227.57265,37.2442748 C227.57265,50.870229 219.491453,58.9160305 207.5,58.9160305 Z" id="Shape"></path>
        </g>
    </g>
</svg>