<?xml version="1.0" encoding="UTF-8"?>
<svg width="6px" height="22px" viewBox="0 0 6 22" version="1.1" xmlns="http://www.w3.org/2000/svg" xmlns:xlink="http://www.w3.org/1999/xlink">
    <title>Icon/Menu/Vetical</title>
    <g id="Page-1---New-version-Copy" stroke="none" stroke-width="1" fill="none" fill-rule="evenodd">
        <g id="KrispyKreme---Media-play-and-overflow" transform="translate(-1208.000000, -602.000000)">
            <g id="Group" transform="translate(167.000000, 184.000000)">
                <g id="Row-1-Copy-4" transform="translate(0.000000, 401.000000)">
                    <g id="Icon/Menu/Vetical" transform="translate(1032.000000, 16.000000)">
                        <polygon id="Path" points="0 0 24 0 24 24 0 24"></polygon>
                        <path d="M12,1.33333333 C13.4666667,1.33333333 14.6666667,2.53333333 14.6666667,4 C14.6666667,5.46666667 13.4666667,6.66666667 12,6.66666667 C10.5333333,6.66666667 9.33333333,5.46666667 9.33333333,4 C9.33333333,2.53333333 10.5333333,1.33333333 12,1.33333333 Z M12,2.46666667 C11.1566667,2.46666667 10.4666667,3.15666667 10.4666667,4 C10.4666667,4.84333333 11.1566667,5.53333333 12,5.53333333 C12.8433333,5.53333333 13.5333333,4.84333333 13.5333333,4 C13.5333333,3.15666667 12.8433333,2.46666667 12,2.46666667 Z M12,17.3333333 C13.4666667,17.3333333 14.6666667,18.5333333 14.6666667,20 C14.6666667,21.4666667 13.4666667,22.6666667 12,22.6666667 C10.5333333,22.6666667 9.33333333,21.4666667 9.33333333,20 C9.33333333,18.5333333 10.5333333,17.3333333 12,17.3333333 Z M12,18.4666667 C11.1566667,18.4666667 10.4666667,19.1566667 10.4666667,20 C10.4666667,20.8433333 11.1566667,21.5333333 12,21.5333333 C12.8433333,21.5333333 13.5333333,20.8433333 13.5333333,20 C13.5333333,19.1566667 12.8433333,18.4666667 12,18.4666667 Z M12,9.33333333 C13.4666667,9.33333333 14.6666667,10.5333333 14.6666667,12 C14.6666667,13.4666667 13.4666667,14.6666667 12,14.6666667 C10.5333333,14.6666667 9.33333333,13.4666667 9.33333333,12 C9.33333333,10.5333333 10.5333333,9.33333333 12,9.33333333 Z M12,10.4666667 C11.1566667,10.4666667 10.4666667,11.1566667 10.4666667,12 C10.4666667,12.8433333 11.1566667,13.5333333 12,13.5333333 C12.8433333,13.5333333 13.5333333,12.8433333 13.5333333,12 C13.5333333,11.1566667 12.8433333,10.4666667 12,10.4666667 Z" id="Shape" fill="#7F8FA6"></path>
                    </g>
                </g>
            </g>
        </g>
    </g>
</svg>