<?xml version="1.0" encoding="UTF-8"?>
<svg width="14px" height="14px" viewBox="0 0 14 14" version="1.1" xmlns="http://www.w3.org/2000/svg" xmlns:xlink="http://www.w3.org/1999/xlink">
    <title>Icon/Sort</title>
    <g id="Page-1---New-version-Copy" stroke="none" stroke-width="1" fill="none" fill-rule="evenodd">
        <g id="Table/Text/Dual-Icon-Copy-8" transform="translate(-70.000000, -6.000000)">
            <g id="Icon/Sort" transform="translate(68.000000, 4.000000)">
                <polygon id="Path" points="0 0 18 0 18 18 0 18"></polygon>
                <g id="Icon/Star" transform="translate(3.000000, 3.000000)" fill="#002FA7" fill-rule="nonzero">
                    <path d="M5.86705374,-0.0721743503 C5.51655477,-0.0307312802 5.20233479,0.17295933 5.02240634,0.48250164 L3.646,3.273 L0.591693912,3.71627519 C0.177470741,3.77568286 -0.167520875,4.06573267 -0.297381672,4.46419044 L-0.331927362,4.5982077 C-0.400905338,4.95810764 -0.286061293,5.33277886 -0.0192888614,5.5927861 L2.191,7.748 L1.6695303,10.7917648 C1.59882067,11.2044476 1.76850766,11.6214717 2.10724924,11.8675321 L2.22398985,11.9416213 C2.54481219,12.117993 2.93622234,12.1243719 3.2656272,11.9511829 L6,10.512 L8.73293391,11.949715 C9.10345327,12.1445205 9.55250918,12.1120925 9.89125076,11.8660321 L9.99780548,11.7779205 C10.2647327,11.5273535 10.391823,11.157096 10.3289728,10.7902829 L9.807,7.746 L12.0191756,5.59289645 C12.3188673,5.30028706 12.4264979,4.86348705 12.2972083,4.46558311 L12.252128,4.34956322 C12.0984495,4.01195779 11.7826969,3.77168703 11.4092448,3.71641283 L8.353,3.272 L6.98895931,0.503699237 C6.77517416,0.134266542 6.40279193,-0.08 6,-0.08 L5.86705374,-0.0721743503 Z M6,0.62 C6.1534403,0.62 6.29529628,0.701623093 6.37240634,0.834280417 L7.80629069,3.74633282 C7.85723173,3.84972173 7.9558085,3.92140344 8.06986534,3.93799545 L11.3076153,4.40899545 C11.459126,4.43142146 11.5844056,4.53705281 11.6314701,4.68189921 C11.6784845,4.82659156 11.6393461,4.98542792 11.5304892,5.09171248 L9.18707441,7.37363561 C9.10450779,7.45403568 9.06681173,7.56992853 9.0862803,7.68351723 L9.6390303,10.9085172 C9.66473867,11.058559 9.60303431,11.2102042 9.47985555,11.2996807 C9.35667679,11.3891572 9.19338373,11.4009492 9.0586272,11.3300991 L6.16281609,9.80831701 C6.06086007,9.75473795 5.93906998,9.75474967 5.83712428,9.80834836 L2.93987428,11.3315984 C2.80511627,11.4024492 2.64182321,11.3906572 2.51864445,11.3011807 C2.39546569,11.2117042 2.33376133,11.060059 2.3594728,10.9099991 L2.9122197,7.68501723 C2.93167471,7.57150764 2.89404514,7.45569155 2.81158813,7.37529399 L0.469338133,5.09154399 C0.360154685,4.98512936 0.320942095,4.82599127 0.368164203,4.68109753 C0.415386311,4.5362038 0.540837808,4.43073114 0.691688861,4.40909596 L3.93005609,3.93875687 C4.04415689,3.9221849 4.14277647,3.85048152 4.19372499,3.747051 L5.63897499,0.813050999 C5.70470372,0.701623093 5.8465597,0.62 6,0.62 Z" id="Fill"></path>
                </g>
            </g>
        </g>
    </g>
</svg>