<?xml version="1.0" encoding="UTF-8"?>
<svg width="16px" height="16px" viewBox="0 0 16 16" version="1.1" xmlns="http://www.w3.org/2000/svg" xmlns:xlink="http://www.w3.org/1999/xlink">
    <title>Icon/Cards</title>
    <g id="Page-1---New-version-Copy" stroke="none" stroke-width="1" fill="none" fill-rule="evenodd">
        <g id="KrispyKreme---single-select-edit" transform="translate(-1107.000000, -220.000000)" fill="#002FA7">
            <g id="Group" transform="translate(167.000000, 184.000000)">
                <g id="Section-actions" transform="translate(0.000000, 1.000000)">
                    <g id="Table-Actions" transform="translate(888.000000, 31.000000)">
                        <g id="Icon/Cards" transform="translate(48.000000, 0.000000)">
                            <path d="M18,4 L6,4 C4.9,4 4,4.9 4,6 L4,18 C4,19.1 4.9,20 6,20 L18,20 C19.1,20 20,19.1 20,18 L20,6 C20,4.9 19.1,4 18,4 Z M10,16 L6,16 L6,14 L10,14 L10,16 Z M10,11 C9.3,11 8.6,10.6 8.3,10 L6,10 L6,8 L8.3,8 C8.6,7.4 9.3,7 10,7 C11.1,7 12,7.9 12,9 C12,10.1 11.1,11 10,11 Z M18,16 L15.7,16 C15.4,16.6 14.7,17 14,17 C12.9,17 12,16.1 12,15 C12,13.9 12.9,13 14,13 C14.7,13 15.4,13.4 15.7,14 L18,14 L18,16 Z M18,10 L14,10 L14,8 L18,8 L18,10 Z" id="Fill"></path>
                        </g>
                    </g>
                </g>
            </g>
        </g>
    </g>
</svg>